<svg xmlns="http://www.w3.org/2000/svg" width="11.092" height="15.252" viewBox="0 0 11.092 15.252">
  <g id="sort-arrows-couple-pointing-up-and-down" transform="translate(-54.818)">
    <g id="Group_9059" data-name="Group 9059" transform="translate(54.818)">
      <path id="Path_783" data-name="Path 783" d="M55.511,6.239h9.706A.689.689,0,0,0,65.7,5.059L60.852.206a.68.68,0,0,0-.975,0L55.024,5.059a.693.693,0,0,0,.488,1.181Z" transform="translate(-54.818)" fill="#cbcccd"/>
      <path id="Path_784" data-name="Path 784" d="M65.217,237.549H55.511a.689.689,0,0,0-.488,1.181l4.853,4.853a.68.68,0,0,0,.975,0L65.7,238.73a.693.693,0,0,0-.487-1.181Z" transform="translate(-54.818 -228.536)" fill="#cbcccd"/>
    </g>
  </g>
</svg>
