<svg xmlns="http://www.w3.org/2000/svg" width="17.042" height="15.337" viewBox="0 0 17.042 15.337">
  <g id="excel_1_" data-name="excel (1)" transform="translate(0 -10.626)">
    <g id="Group_8079" data-name="Group 8079" transform="translate(0 10.626)">
      <path id="Path_3316" data-name="Path 3316" d="M9.807,10.7a.373.373,0,0,0-.3-.067l-9.231,2A.338.338,0,0,0,0,12.962V24.3a.341.341,0,0,0,.3.329l9.231,1.333a.353.353,0,0,0,.4-.279.314.314,0,0,0,0-.051V10.962A.326.326,0,0,0,9.807,10.7Z" transform="translate(0 -10.626)" fill="#4caf50"/>
      <path id="Path_3317" data-name="Path 3317" d="M284.789,65.871h-7.1a.33.33,0,1,1,0-.658h6.746V54.035h-6.746a.33.33,0,1,1,0-.658h7.1a.343.343,0,0,1,.355.329V65.542A.343.343,0,0,1,284.789,65.871Z" transform="translate(-268.102 -51.954)" fill="#4caf50"/>
    </g>
    <g id="Group_8080" data-name="Group 8080" transform="translate(2.834 15.091)">
      <path id="Path_3318" data-name="Path 3318" d="M89.061,166.159a.355.355,0,0,1-.3-.167l-3.55-5.681a.355.355,0,0,1,.59-.4l.012.02,3.55,5.681a.355.355,0,0,1-.3.542Z" transform="translate(-85.149 -159.758)" fill="#fafafa"/>
      <path id="Path_3319" data-name="Path 3319" d="M85.709,166.138a.355.355,0,0,1-.3-.543l3.55-5.68a.355.355,0,0,1,.614.356l-.012.02-3.55,5.68A.355.355,0,0,1,85.709,166.138Z" transform="translate(-85.348 -159.737)" fill="#fafafa"/>
    </g>
    <g id="Group_8081" data-name="Group 8081" transform="translate(9.23 12.049)">
      <path id="Path_3320" data-name="Path 3320" d="M363.022,65.87a.343.343,0,0,1-.355-.329V53.7a.356.356,0,0,1,.71,0V65.541A.343.343,0,0,1,363.022,65.87Z" transform="translate(-359.827 -53.376)" fill="#4caf50"/>
      <path id="Path_3321" data-name="Path 3321" d="M284.789,374.086h-7.1a.355.355,0,0,1,0-.71h7.1a.355.355,0,0,1,0,.71Z" transform="translate(-277.333 -363.556)" fill="#4caf50"/>
      <path id="Path_3322" data-name="Path 3322" d="M284.789,310.086h-7.1a.355.355,0,0,1,0-.71h7.1a.355.355,0,0,1,0,.71Z" transform="translate(-277.333 -301.52)" fill="#4caf50"/>
      <path id="Path_3323" data-name="Path 3323" d="M284.789,246.086h-7.1a.355.355,0,1,1,0-.71h7.1a.355.355,0,0,1,0,.71Z" transform="translate(-277.333 -239.484)" fill="#4caf50"/>
      <path id="Path_3324" data-name="Path 3324" d="M284.789,182.086h-7.1a.355.355,0,1,1,0-.71h7.1a.355.355,0,0,1,0,.71Z" transform="translate(-277.333 -177.448)" fill="#4caf50"/>
      <path id="Path_3325" data-name="Path 3325" d="M284.789,118.086h-7.1a.355.355,0,1,1,0-.71h7.1a.355.355,0,0,1,0,.71Z" transform="translate(-277.333 -115.412)" fill="#4caf50"/>
    </g>
  </g>
</svg>
