<svg id="exclamation-mark" xmlns="http://www.w3.org/2000/svg" width="17.572" height="17.572" viewBox="0 0 17.572 17.572">
  <path id="Path_3317" data-name="Path 3317" d="M8.786,0a8.786,8.786,0,1,0,8.786,8.786A8.786,8.786,0,0,0,8.786,0Zm0,15.925a7.139,7.139,0,1,1,7.139-7.139A7.139,7.139,0,0,1,8.786,15.925Zm0-12.072c-.629,0-1.105.328-1.105.859V9.577c0,.531.476.858,1.105.858.614,0,1.105-.341,1.105-.858V4.712C9.892,4.194,9.4,3.853,8.787,3.853Zm0,7.679a1.1,1.1,0,1,0,1.1,1.1A1.1,1.1,0,0,0,8.787,11.532Z" fill="#e2574c"/>
</svg>
