<svg xmlns="http://www.w3.org/2000/svg" width="19.285" height="18.173" viewBox="0 0 19.285 18.173">
  <g id="_497789" data-name="497789" transform="translate(0 -14.759)">
    <g id="Group_1644" data-name="Group 1644" transform="translate(0 14.759)">
      <path id="Path_2732" data-name="Path 2732" d="M18.885,28.665,12.072,16.142a2.825,2.825,0,0,0-4.859,0L.4,28.665A2.824,2.824,0,0,0,2.83,32.932H16.455A2.824,2.824,0,0,0,18.885,28.665ZM9.643,30.672a1.13,1.13,0,1,1,1.13-1.13A1.131,1.131,0,0,1,9.643,30.672Zm1.13-4.52a1.13,1.13,0,1,1-2.26,0V20.5a1.13,1.13,0,1,1,2.26,0Z" transform="translate(0 -14.759)" fill="#e5456d"/>
    </g>
  </g>
</svg>
