<svg xmlns="http://www.w3.org/2000/svg" width="16" height="16" viewBox="0 0 16 16">
  <defs>
    <style>
      .cls-1 {
        fill: #2d4046;
      }
    </style>
  </defs>
  <path id="Path_275" data-name="Path 275" class="cls-1" d="M102.914,76.8a.81.81,0,0,0,.12-.01l3.364-.59a.2.2,0,0,0,.106-.056l8.478-8.478a.191.191,0,0,0,.043-.065.2.2,0,0,0,0-.153.191.191,0,0,0-.043-.065l-3.324-3.326a.2.2,0,0,0-.284,0L102.9,72.536a.2.2,0,0,0-.056.106l-.59,3.364a.677.677,0,0,0,.664.794Zm1.348-3.488,7.254-7.252,1.466,1.466-7.254,7.252-1.778.314Zm11.1,5.168H100.64a.639.639,0,0,0-.64.64v.72a.16.16,0,0,0,.16.16h15.68a.16.16,0,0,0,.16-.16v-.72A.639.639,0,0,0,115.36,78.48Z" transform="translate(-100 -64)"/>
</svg>
