<svg id="Group_4422" data-name="Group 4422" xmlns="http://www.w3.org/2000/svg" width="18.725" height="18.291" viewBox="0 0 18.725 18.291">
  <defs>
    <style>
      .cls-1 {
        fill: #2d4046;
      }
    </style>
  </defs>
  <path id="Path_3057" data-name="Path 3057" class="cls-1" d="M18.958,7.069H17.105V4.29a.7.7,0,0,0-.69-.69H7.29a.7.7,0,0,0-.69.69V7.069H4.767A2.28,2.28,0,0,0,2.5,9.336v6.13a2.28,2.28,0,0,0,2.267,2.267H5.3L4.274,21a.738.738,0,0,0,.1.611.691.691,0,0,0,.552.276H18.8a.691.691,0,0,0,.552-.276.673.673,0,0,0,.1-.611l-1.025-3.272h.532a2.28,2.28,0,0,0,2.267-2.267V9.336A2.267,2.267,0,0,0,18.958,7.069ZM7.979,4.98h7.766V7.069H7.979ZM5.851,20.511l1.932-6.228H15.9l1.932,6.228Zm14.014-5.046a.883.883,0,0,1-.887.887h-.946L17.105,13.4a.674.674,0,0,0-.65-.473H7.29s-.572.2-.65.473l-.926,2.957H4.767a.883.883,0,0,1-.887-.887V9.336a.883.883,0,0,1,.887-.887H18.958a.883.883,0,0,1,.887.887v6.13Z" transform="translate(-2.5 -3.6)"/>
  <circle id="Ellipse_448" data-name="Ellipse 448" class="cls-1" cx="1.08" cy="1.08" r="1.08" transform="translate(2.897 6.103)"/>
  <path id="Path_3058" data-name="Path 3058" class="cls-1" d="M34.871,65.143h5.444a.771.771,0,0,0,0-1.543H34.871a.771.771,0,0,0,0,1.543Z" transform="translate(-28.241 -51.888)"/>
  <path id="Path_3059" data-name="Path 3059" class="cls-1" d="M38.381,76.5H31.371a.771.771,0,1,0,0,1.543h7.009a.781.781,0,0,0,.771-.771A.8.8,0,0,0,38.381,76.5Z" transform="translate(-25.514 -62.595)"/>
</svg>
