<svg id="_1798859" data-name="1798859" xmlns="http://www.w3.org/2000/svg" width="18.525" height="19.823" viewBox="0 0 18.525 19.823">
  <defs>
    <style>
      .cls-1 {
        fill: #2d4046;
      }

      .cls-2 {
        fill: #0c323d;
      }
    </style>
  </defs>
  <path id="Path_735" data-name="Path 735" class="cls-1" d="M374.654,147.443a.359.359,0,0,0-.067-.04.426.426,0,0,0-.075-.02.4.4,0,0,0-.226.02.378.378,0,0,0-.131.087.4.4,0,0,0,0,.559.333.333,0,0,0,.131.087.4.4,0,0,0,.151.031.474.474,0,0,0,.075-.008l.075-.024c.024-.012.048-.024.067-.036a.423.423,0,0,0,.063-.052.4.4,0,0,0,.115-.278.41.41,0,0,0-.115-.281A.243.243,0,0,0,374.654,147.443Zm0,0" transform="translate(-357.823 -140.985)"/>
  <path id="Path_736" data-name="Path 736" class="cls-1" d="M334.941,147.608c-.012-.024-.024-.044-.035-.067a.687.687,0,0,0-.052-.06.39.39,0,0,0-.559,0,.387.387,0,0,0-.087.432.423.423,0,0,0,.214.214.4.4,0,0,0,.155.032.387.387,0,0,0,.277-.119.347.347,0,0,0,.087-.127.4.4,0,0,0,.032-.151.549.549,0,0,0-.008-.079C334.957,147.66,334.949,147.632,334.941,147.608Zm0,0" transform="translate(-319.688 -140.975)"/>
  <path id="Path_737" data-name="Path 737" class="cls-2" d="M17.535,4.519H14.891V.4a.4.4,0,0,0-.4-.4H4.172a.4.4,0,0,0-.4.4V4.519H1.131A1.062,1.062,0,0,0,.07,5.579v8.563A1.062,1.062,0,0,0,1.131,15.2H3.775v4.224a.4.4,0,0,0,.4.4H14.494a.4.4,0,0,0,.4-.4V15.2h2.644A1.062,1.062,0,0,0,18.6,14.142V5.579A1.062,1.062,0,0,0,17.535,4.519ZM4.568.793H14.1V4.519H4.568Zm0,18.237V11.444H14.1V19.03ZM17.8,14.142a.268.268,0,0,1-.268.268H14.891V11.444h1.244a.4.4,0,0,0,0-.793H2.531a.4.4,0,0,0,0,.793H3.775V14.41H1.131a.268.268,0,0,1-.268-.268V5.579a.268.268,0,0,1,.268-.267h16.4a.268.268,0,0,1,.268.267Zm0,0" transform="translate(-0.07)"/>
  <path id="Path_738" data-name="Path 738" class="cls-1" d="M124.689,296.785h4.774a.4.4,0,1,0,0-.793h-4.774a.4.4,0,1,0,0,.793Zm0,0" transform="translate(-118.906 -283.157)"/>
  <path id="Path_739" data-name="Path 739" class="cls-1" d="M131.648,342.242h-6.959a.4.4,0,1,0,0,.793h6.959a.4.4,0,1,0,0-.793Zm0,0" transform="translate(-118.906 -327.401)"/>
  <path id="Path_740" data-name="Path 740" class="cls-1" d="M131.648,388.492h-6.959a.4.4,0,1,0,0,.793h6.959a.4.4,0,1,0,0-.793Zm0,0" transform="translate(-118.906 -371.646)"/>
</svg>
