<svg id="_1828960" data-name="1828960" xmlns="http://www.w3.org/2000/svg" width="16.781" height="18.307" viewBox="0 0 16.781 18.307">
  <defs>
    <style>
      .cls-1 {
        fill: #2d4046;
      }
    </style>
  </defs>
  <path id="Path_741" data-name="Path 741" class="cls-1" d="M312.192,5.721a2.86,2.86,0,1,1,2.86-2.86A2.864,2.864,0,0,1,312.192,5.721Zm0-4.577a1.716,1.716,0,1,0,1.716,1.716A1.718,1.718,0,0,0,312.192,1.144Zm0,0" transform="translate(-298.272)"/>
  <path id="Path_742" data-name="Path 742" class="cls-1" d="M312.192,357.721a2.86,2.86,0,1,1,2.86-2.86A2.864,2.864,0,0,1,312.192,357.721Zm0-4.577a1.716,1.716,0,1,0,1.716,1.716A1.718,1.718,0,0,0,312.192,353.144Zm0,0" transform="translate(-298.272 -339.414)"/>
  <path id="Path_743" data-name="Path 743" class="cls-1" d="M2.86,181.721a2.86,2.86,0,1,1,2.86-2.86A2.864,2.864,0,0,1,2.86,181.721Zm0-4.577a1.716,1.716,0,1,0,1.716,1.716A1.718,1.718,0,0,0,2.86,177.144Zm0,0" transform="translate(0 -169.707)"/>
  <path id="Path_744" data-name="Path 744" class="cls-1" d="M120.262,100.738a.572.572,0,0,1-.284-1.069l7.078-4.035a.572.572,0,0,1,.566.994l-7.078,4.035A.573.573,0,0,1,120.262,100.738Zm0,0" transform="translate(-115.41 -92.142)"/>
  <path id="Path_745" data-name="Path 745" class="cls-1" d="M127.36,276.728a.567.567,0,0,1-.282-.075L120,272.617a.572.572,0,0,1,.566-.994l7.078,4.035a.572.572,0,0,1-.284,1.069Zm0,0" transform="translate(-115.43 -261.838)"/>
</svg>
