<svg xmlns="http://www.w3.org/2000/svg" width="19.519" height="13.013" viewBox="0 0 19.519 13.013">
  <defs>
    <style>
      .cls-1 {
        fill: #0c323d;
      }
    </style>
  </defs>
  <g id="_2809197" data-name="2809197" transform="translate(-39.862 0)">
    <circle id="Ellipse_432" data-name="Ellipse 432" class="cls-1" cx="2.372" cy="2.372" r="2.372" transform="translate(47.25 4.135)"/>
    <path id="Path_2938" data-name="Path 2938" class="cls-1" d="M12.253,9.506a3.253,3.253,0,1,1,3.253-3.253A3.257,3.257,0,0,1,12.253,9.506Zm0-4.88A1.627,1.627,0,1,0,13.88,6.253,1.629,1.629,0,0,0,12.253,4.627Z" transform="translate(37.369 0.253)"/>
    <path id="Path_2939" data-name="Path 2939" class="cls-1" d="M12.76,13.013c-3.859,0-7.468-2.282-9.652-6.1a.812.812,0,0,1,0-.807C5.291,2.282,8.9,0,12.76,0s7.468,2.282,9.652,6.1a.812.812,0,0,1,0,.807c-2.184,3.821-5.793,6.1-9.652,6.1Zm-8-6.506a9.586,9.586,0,0,0,8,4.88,9.586,9.586,0,0,0,8-4.88,9.586,9.586,0,0,0-8-4.88,9.586,9.586,0,0,0-8,4.88Z" transform="translate(36.862)"/>
  </g>
</svg>
